<svg id="visual" viewBox="0 0 900 600" width="900" height="600" xmlns="http://www.w3.org/2000/svg" xmlns:xlink="http://www.w3.org/1999/xlink" version="1.1"><rect x="0" y="0" width="900" height="600" fill="#FDFEFD"></rect><g transform="translate(457.2145248143356 350.8492731591661)"><path d="M162.2 -230.4C222.9 -179.1 293.6 -148.7 332.1 -93.1C370.6 -37.4 376.9 43.6 350.2 110.1C323.5 176.6 263.7 228.7 199.9 239.2C136 249.8 68 218.9 16.8 195.9C-34.5 172.8 -69 157.6 -127.3 145.2C-185.6 132.8 -267.8 123.3 -321.9 76.4C-376 29.5 -402 -54.8 -360.2 -96.5C-318.4 -138.2 -208.8 -137.4 -137.5 -185.2C-66.1 -233 -33.1 -329.5 8.8 -341.7C50.7 -353.8 101.5 -281.7 162.2 -230.4" fill="#E1EDE1"></path></g></svg>