<svg viewBox="0 0 319.8189753806571 136.75934296549093" xmlns:xlink="http://www.w3.org/1999/xlink" xmlns="http://www.w3.org/2000/svg" height="136.75934296549093" width="319.8189753806571" style="width: 319.819px; height: 136.759px; position: absolute; top: 50%; left: 50%; transform: translate(-50%, -50%) scale(1); z-index: 0; cursor: pointer; overflow: visible;"><defs id="SvgjsDefs1001"><linearGradient id="SvgjsLinearGradient1013"><stop id="SvgjsStop1014" stop-color="#006838" offset="0"></stop><stop id="SvgjsStop1015" stop-color="#96cf24" offset="1"></stop></linearGradient><linearGradient id="SvgjsLinearGradient1016"><stop id="SvgjsStop1017" stop-color="#ef4136" offset="0"></stop><stop id="SvgjsStop1018" stop-color="#fbb040" offset="1"></stop></linearGradient><linearGradient id="SvgjsLinearGradient1019"><stop id="SvgjsStop1020" stop-color="#ef4136" offset="0"></stop><stop id="SvgjsStop1021" stop-color="#fbb040" offset="1"></stop></linearGradient><linearGradient id="SvgjsLinearGradient1013"><stop id="SvgjsStop1014" stop-color="#006838" offset="0"></stop><stop id="SvgjsStop1015" stop-color="#96cf24" offset="1"></stop></linearGradient><linearGradient id="SvgjsLinearGradient1013"><stop id="SvgjsStop1014" stop-color="#006838" offset="0"></stop><stop id="SvgjsStop1015" stop-color="#96cf24" offset="1"></stop></linearGradient><linearGradient id="SvgjsLinearGradient1013"><stop id="SvgjsStop1014" stop-color="#006838" offset="0"></stop><stop id="SvgjsStop1015" stop-color="#96cf24" offset="1"></stop></linearGradient><linearGradient id="SvgjsLinearGradient1013"><stop id="SvgjsStop1014" stop-color="#006838" offset="0"></stop><stop id="SvgjsStop1015" stop-color="#96cf24" offset="1"></stop></linearGradient><linearGradient id="SvgjsLinearGradient1013"><stop id="SvgjsStop1014" stop-color="#006838" offset="0"></stop><stop id="SvgjsStop1015" stop-color="#96cf24" offset="1"></stop></linearGradient><linearGradient id="SvgjsLinearGradient1016"><stop id="SvgjsStop1017" stop-color="#ef4136" offset="0"></stop><stop id="SvgjsStop1018" stop-color="#fbb040" offset="1"></stop></linearGradient><linearGradient id="SvgjsLinearGradient1016"><stop id="SvgjsStop1017" stop-color="#ef4136" offset="0"></stop><stop id="SvgjsStop1018" stop-color="#fbb040" offset="1"></stop></linearGradient><linearGradient id="SvgjsLinearGradient1019"><stop id="SvgjsStop1020" stop-color="#ef4136" offset="0"></stop><stop id="SvgjsStop1021" stop-color="#fbb040" offset="1"></stop></linearGradient><linearGradient id="SvgjsLinearGradient1019"><stop id="SvgjsStop1020" stop-color="#ef4136" offset="0"></stop><stop id="SvgjsStop1021" stop-color="#fbb040" offset="1"></stop></linearGradient></defs><g id="SvgjsG1007" featurekey="7KWit6-0" transform="matrix(1.6481607326169987,0,0,1.6481607326169987,77.66620000749971,-12.041239421254573)" fill="url(&quot;#SvgjsLinearGradient1013&quot;)"><path xmlns="http://www.w3.org/2000/svg" d="M83.045,53.614c-10.512,0.042-6.763-3.708-0.529-5.336c6.233-1.63,5.704-3.912,5.662-4.278  c-0.04-0.367-1.751-4.563-10.633-4.686c-8.882-0.122-11.081-1.263-11.081-1.263c-7.009-1.303-3.424,4.238-3.424,4.238  s4.563,4.482-0.731,6.112c-5.297,1.629-4.319,3.422-4.319,3.422c1.16,1.966,2.797,2.58,2.797,2.58  c3.423,1.467,4.062,3.531,4.279,4.481c0.216,0.95-0.802,2.974-1.236,3.79c-0.435,0.814-0.136,1.779,0.23,2.308  c0.367,0.53,1.549,0.815,4.686,0c3.137-0.814,3.3-4.359,9.451-3.056c6.152,1.305,8.801-0.529,8.801-0.529  C98.486,54.715,93.557,53.574,83.045,53.614z" fill="url(&quot;#SvgjsLinearGradient1013&quot;)"></path><path xmlns="http://www.w3.org/2000/svg" d="M64.013,59.123c-0.238-1.558-2.343-3.262-3.631-3.707c-1.882-0.649-3.291-2.92-3.351-3.016l-0.019-0.033  c-0.073-0.134-0.396-0.798-0.024-1.691c0.526-1.274,2.139-2.293,4.928-3.116c1.028-0.378,1.651-0.86,1.8-1.393  c0.265-0.944-0.813-2.284-1.273-2.856c-0.122-0.152-0.217-0.271-0.29-0.377c-0.739-1.067-1.531-2.63-1.104-3.998  c0.069-0.225,0.169-0.434,0.301-0.627c-0.814-0.394-1.619-0.703-2.352-0.901c-1.241-0.336-2.931-0.721-4.984-0.721  c-3.724,0-7.389,1.287-10.89,3.828c-5.472,3.968-11.324,4.561-14.326,4.561c-0.066,0-0.13,0-0.195,0  c0.017,0.054,0.033,0.109,0.048,0.165c0.275,1.001,0.128,1.957-0.438,2.843c-0.818,1.281-2.52,2.359-5.057,3.208  c-1.815,0.605-3.371,0.866-3.435,0.877c-0.023,0.005-3.727,0.784-3.507,2.757c0.09,0.809,0.796,1.462,2.103,1.939  c1.046,0.383,2.129,0.51,2.337,0.531c0.09-0.002,0.272-0.006,0.524-0.006c5.873,0,8.114,1.191,8.961,2.191  c0.505,0.596,0.706,1.317,0.579,2.084l-0.01,0.054c-0.032,0.319-0.188,0.675-0.358,0.984c0.727-0.175,1.768-0.599,2.453-1.632  c3.311-4.644,6.786-6.991,10.34-6.991c3.088,0,5.507,1.649,6.807,2.535l0.037,0.026c0.123,0.083,0.235,0.158,0.337,0.225  c1.846,1.213,2.921,2.189,4.408,3.543l0.059,0.054c0.365,0.333,0.761,0.69,1.203,1.085c0.789,0.707,2.279,1.244,4.304,1.555  c0.899,0.138,1.716,0.199,2.271,0.229c0.038-0.363,0.143-0.707,0.314-1.027C63.575,61.002,64.083,59.574,64.013,59.123z   M26.993,55.196c-0.748,0.735-2.047,1.126-3.758,1.126c-0.452,0-0.944-0.028-1.462-0.083l-0.021-0.002  c-0.022-0.001-2.311-0.071-3.216-0.956c-0.274-0.268-0.382-0.584-0.329-0.963l0.005-0.043c0.019-0.083,0.376-1.268,5.21-1.625  c2.121-0.158,3.551,0.164,3.943,0.885C27.665,54.084,27.342,54.852,26.993,55.196z M50.041,42.797  c-0.139-0.741,0.034-1.454,0.465-1.917c0.184-0.272,1.287-1.761,3.521-1.761c0.851,0,1.763,0.221,2.715,0.657  c4.195,1.925,4.089,4.726,3.832,5.371c-0.096,0.238-1.006,2.328-3.593,2.328c-0.857,0-1.812-0.234-2.837-0.696  C50.954,45.341,50.204,43.667,50.041,42.797z M60.663,59.865c-0.12,0.16-0.827,1.016-2.024,1.016c-0.801,0-1.629-0.385-2.458-1.145  c-2.173-1.991-1.942-2.881-1.519-3.619c0.036-0.066,0.071-0.127,0.093-0.174l0.036-0.09l0.073-0.063  c0.032-0.027,0.799-0.677,2.008-0.677c0.884,0,1.766,0.34,2.622,1.014c0.999,0.787,1.534,1.598,1.589,2.408  C61.136,59.276,60.768,59.749,60.663,59.865z" fill="url(&quot;#SvgjsLinearGradient1013&quot;)"></path><path xmlns="http://www.w3.org/2000/svg" d="M20.669,58.341c0,0-5.051-0.407-5.378-3.341c-0.325-2.934,4.319-3.83,4.319-3.83s9.289-1.547,8.148-5.704  c-1.141-4.155-9.534-2.525-9.534-2.525C6.328,44.407,6.653,55,6.653,55c1.306,9.371,9.372,9.371,12.957,9.615  s9.533,0.244,10.104-3.178C30.284,58.016,20.669,58.341,20.669,58.341z" fill="url(&quot;#SvgjsLinearGradient1013&quot;)"></path><path xmlns="http://www.w3.org/2000/svg" d="M88.513,38.171c0,0-8.692-3.532-14.612-4.944c-5.923-1.412-13.039-0.922-16.461-1.032c-3.423-0.109-9.018,0.435-13.96,3.042  c-4.944,2.607-16.025,3.096-16.025,3.096s-3.313-0.597-14.94,2.662C2.203,43.887,2.492,52.635,2.688,54.573  c0,0,0.238,1.88,0.538,3.046c1.688,6.605,6.694,8.682,7.659,9.071c1.622,0.659,12.169,2.663,18.632-1.085  c6.464-3.749,16.08-3.423,16.08-3.423s6.41-0.056,10.865,2.39c4.455,2.443,7.225,3.043,9.887,3.043c2.661,0,5.214-0.6,7.713-2.88  c2.499-2.282,4.835,0.108,4.835,0.108s0.38,0.652,2.987,1.249c2.608,0.598,8.638-2.716,11.788-5.433  c3.152-2.715,4.13-7.115,3.53-13.092C96.606,41.593,88.513,38.171,88.513,38.171z M93.271,60.331  c-3.122,2.622-7.923,5.389-10.571,5.389c-2.168,0-3.802-1.5-3.802-1.5s-2.581-2.157-5.056,0.044  c-2.477,2.204-5.007,2.781-7.644,2.781c-2.161,0-3.572-0.19-7.074-1.848c-2.608-1.25-4.304-3.598-8.508-6.807  c-6.701-5.113-11.222-3.934-15.822,2.125c-1.384,1.82-2.288,2.911-3.728,3.73c-0.465,0.212-1.19,0.595-1.63,0.842  c-0.796,0.451-1.412,0.82-2.348,1.096l-0.124,0.035c-6.59,1.879-13.887,0.703-15.721-0.066c-1.267-0.531-5.913-2.38-7.588-8.758  c-0.295-1.127-0.533-2.939-0.533-2.939c-0.194-1.873-0.48-10.317,9.737-13.109c0.997-0.272,1.932-0.516,2.81-0.735  c3.234-0.25,7.432-0.425,10.322,0.001c5.329,0.786,9.527,1.967,12.676-0.707c1.468-1.248,2.747-2.767,5.662-4.503  c4.693-2.185,9.832-2.65,13.041-2.55c0.281,0.008,0.892,0.016,1.211,0.216c1.146,0.783,2.333,1.654,3.58,2.747  c2.421,2.124,4.198,0.865,4.521,0c0.225-0.604,1.08-2.646,2.885-2.64c1.51,0.15,2.674,0.338,4.112,0.672  c5.866,1.364,14.479,4.773,14.479,4.773s8.018,3.304,8.61,9.072C97.362,53.461,96.394,57.709,93.271,60.331z" fill="url(&quot;#SvgjsLinearGradient1013&quot;)"></path></g><g id="SvgjsG1008" featurekey="nameLeftFeature-0" transform="matrix(1.8335489839551673,0,0,1.8335489839551673,-0.9660974940207578,99.53269482530435)" fill="url(&quot;#SvgjsLinearGradient1016&quot;)"><path d="M13.545 13.3594 c0.56641 2.0508 -1.1328 4.4727 -2.7051 5.5371 c-3.0859 2.0215 -7.1582 1.6992 -10.313 0.078125 l0.91797 -4.0625 l1.5137 0 c0.19531 2.0996 4.8926 2.9688 5.3711 0.89844 c0.23438 -1.0254 -3.4473 -1.3086 -4.6777 -2.2754 c-0.068359 -0.058594 -0.14648 -0.11719 -0.20508 -0.17578 l-0.89844 0 c-0.97656 -0.91797 -1.0645 -2.1387 -0.78125 -3.4082 c1.1914 -5.2051 8.2617 -5.7227 12.344 -3.6621 l-0.9082 3.9551 l-1.5234 0 c0.097656 -1.4844 -4.3945 -2.5 -4.8145 -0.71289 c-0.2832 1.3867 4.2676 0.97656 5.5273 3.1738 c0.10742 0.19531 0.19531 0.42969 0.25391 0.6543 l0.89844 0 z M23.213015625 13.3594 l-1.4844 6.6797 l-4.9512 0 l1.5234 -6.6797 l-0.88867 0 l0.98633 -4.2773 l-3.9063 0 l0.85938 -3.7012 l12.676 0 l-0.83008 3.7012 l-3.8965 0 l-0.95703 4.2773 l0.86914 0 z M28.15426875 13.3594 l-0.88867 0 l1.8164 -7.9785 c1.6992 0 4.7656 -0.16602 7.1875 0.15625 c2.1387 0.3125 4.209 1.1035 3.8477 3.6719 c-0.20508 1.5527 -1.3965 3.1445 -2.6855 4.1504 l0.87891 0 c-0.23438 0.17578 -0.46875 0.36133 -0.72266 0.48828 l3.3398 6.1914 l-5.8594 0 l-2.4414 -4.7754 l-1.084 4.7754 l-4.9219 0 z M33.19336875 8.994 l-0.5957 2.5195 c2.3535 0 3.6719 -2.5195 0.5957 -2.5195 z M42.675778125 13.6719 l-0.99609 0 l1.9141 -8.2422 l10.459 0 l-0.83984 3.7012 l-5.5762 0 l-0.29297 1.25 l5.127 0 l-0.75195 3.291 l0.99609 0 l-0.087891 0.39063 l-5.1367 0 l-0.51758 2.2852 l5.5566 0 l-0.83984 3.6914 l-10.479 0 z M54.589840625 13.6719 l-0.99609 0 l1.9141 -8.2422 l10.459 0 l-0.83984 3.7012 l-5.5762 0 l-0.29297 1.25 l5.127 0 l-0.75195 3.291 l0.99609 0 l-0.087891 0.39063 l-5.1367 0 l-0.51758 2.2852 l5.5566 0 l-0.83984 3.6914 l-10.479 0 z M74.892703125 13.3594 l-1.4844 6.6797 l-4.9512 0 l1.5234 -6.6797 l-0.88867 0 l0.98633 -4.2773 l-3.9063 0 l0.85938 -3.7012 l12.676 0 l-0.83008 3.7012 l-3.8965 0 l-0.95703 4.2773 l0.86914 0 z" fill="url(&quot;#SvgjsLinearGradient1016&quot;)"></path></g><g id="SvgjsG1009" featurekey="nameRightFeature-0" transform="matrix(1.8335489839551673,0,0,1.8335489839551673,149.03390250597926,99.53269482530435)" fill="url(&quot;#SvgjsLinearGradient1019&quot;)"><path d="M13.545 13.3594 c0.56641 2.0508 -1.1328 4.4727 -2.7051 5.5371 c-3.0859 2.0215 -7.1582 1.6992 -10.313 0.078125 l0.91797 -4.0625 l1.5137 0 c0.19531 2.0996 4.8926 2.9688 5.3711 0.89844 c0.23438 -1.0254 -3.4473 -1.3086 -4.6777 -2.2754 c-0.068359 -0.058594 -0.14648 -0.11719 -0.20508 -0.17578 l-0.89844 0 c-0.97656 -0.91797 -1.0645 -2.1387 -0.78125 -3.4082 c1.1914 -5.2051 8.2617 -5.7227 12.344 -3.6621 l-0.9082 3.9551 l-1.5234 0 c0.097656 -1.4844 -4.3945 -2.5 -4.8145 -0.71289 c-0.2832 1.3867 4.2676 0.97656 5.5273 3.1738 c0.10742 0.19531 0.19531 0.42969 0.25391 0.6543 l0.89844 0 z M27.754015625 13.6328 l-1.4551 6.3574 l-4.541 0 l-1.9336 -6.3574 l-0.22461 0 l-1.4746 6.3574 l-4.5996 0 l1.4746 -6.3574 l-0.88867 0 l1.8848 -8.1836 l5.3613 0 l1.582 5.1367 l1.2012 -5.1367 l4.6191 0 l-1.8945 8.1836 l0.88867 0 z M29.736325 13.6719 l-0.99609 0 l1.9141 -8.2422 l10.459 0 l-0.83984 3.7012 l-5.5762 0 l-0.29297 1.25 l5.127 0 l-0.75195 3.291 l0.99609 0 l-0.087891 0.39063 l-5.1367 0 l-0.51758 2.2852 l5.5566 0 l-0.83984 3.6914 l-10.479 0 z M42.3241875 13.6328 l-1.123 0 l4.5898 -8.1934 l4.873 0 l0.79102 8.1934 l1.0938 0 l0.61523 6.3574 l-5.0293 0 l-0.20508 -2.7441 l-2.7832 0 c-0.48828 0.9082 -0.94727 1.8262 -1.4355 2.7441 l-4.9414 0 z M47.8026875 13.837900000000001 l0 -0.20508 l-1.0645 0 l0.019531 -3.2422 l-1.3086 3.2422 l1.084 0 l-0.078125 0.20508 l1.3477 0 z M64.219140625 13.6719 l2.832 6.3672 l-5.791 0 l-1.8359 -4.4043 l-1.0156 4.4043 l-4.9023 0 l1.4648 -6.3672 l-0.98633 0 l1.8848 -8.2422 l4.9121 0 l-0.94727 4.1016 c1.2793 -1.3672 2.5293 -2.7539 3.7988 -4.1016 l5.6445 0 l-6.6602 6.8359 l0.5957 1.4063 l1.0059 0 z M68.378903125 13.6719 l-0.99609 0 l1.9141 -8.2422 l10.459 0 l-0.83984 3.7012 l-5.5762 0 l-0.29297 1.25 l5.127 0 l-0.75195 3.291 l0.99609 0 l-0.087891 0.39063 l-5.1367 0 l-0.51758 2.2852 l5.5566 0 l-0.83984 3.6914 l-10.479 0 z M80.371065625 13.3594 l-0.88867 0 l1.8164 -7.9785 c1.6992 0 4.7656 -0.16602 7.1875 0.15625 c2.1387 0.3125 4.209 1.1035 3.8477 3.6719 c-0.20508 1.5527 -1.3965 3.1445 -2.6855 4.1504 l0.87891 0 c-0.23438 0.17578 -0.46875 0.36133 -0.72266 0.48828 l3.3398 6.1914 l-5.8594 0 l-2.4414 -4.7754 l-1.084 4.7754 l-4.9219 0 z M85.410165625 8.994 l-0.5957 2.5195 c2.3535 0 3.6719 -2.5195 0.5957 -2.5195 z" fill="url(&quot;#SvgjsLinearGradient1019&quot;)"></path></g></svg>