<svg id="visual" viewBox="0 0 900 600" width="900" height="600" xmlns="http://www.w3.org/2000/svg" xmlns:xlink="http://www.w3.org/1999/xlink" version="1.1"><rect x="0" y="0" width="900" height="600" fill="#FAFAFB"></rect><defs><linearGradient id="grad1_0" x1="33.3%" y1="0%" x2="100%" y2="100%"><stop offset="20%" stop-color="#fafafb" stop-opacity="1"></stop><stop offset="80%" stop-color="#fafafb" stop-opacity="1"></stop></linearGradient></defs><defs><linearGradient id="grad2_0" x1="0%" y1="0%" x2="66.7%" y2="100%"><stop offset="20%" stop-color="#fafafb" stop-opacity="1"></stop><stop offset="80%" stop-color="#fafafb" stop-opacity="1"></stop></linearGradient></defs><g transform="translate(900, 0)"><path d="M0 297.5C-29 290.3 -58 283.1 -89.9 276.8C-121.8 270.4 -156.7 265 -174.8 240.6C-193 216.3 -194.4 173.1 -195 141.7C-195.5 110.2 -195.2 90.6 -212.1 68.9C-229 47.3 -263.2 23.6 -297.5 0L0 0Z" fill="#2C8B3D"></path></g><g transform="translate(0, 600)"><path d="M0 -297.5C29.7 -288.1 59.5 -278.7 86.5 -266.3C113.6 -253.9 137.9 -238.4 161.1 -221.7C184.3 -204.9 206.4 -187 228.1 -165.8C249.9 -144.5 271.4 -120.1 282.9 -91.9C294.4 -63.8 295.9 -31.9 297.5 0L0 0Z" fill="#2C8B3D"></path></g></svg>